<svg width="24" height="24" viewBox="0 0 24 24" fill="none" xmlns="http://www.w3.org/2000/svg">
<g id="twitter (1) 1" clip-path="url(#clip0_43_978)">
<g id="Layer 2">
<g id="Color">
<g id="04.Twitter">
<path id="Background" d="M12 24C18.6274 24 24 18.6274 24 12C24 5.37258 18.6274 0 12 0C5.37258 0 0 5.37258 0 12C0 18.6274 5.37258 24 12 24Z" fill="#F85559"/>
<path id="Icon" d="M19.773 7.17945C19.1883 7.43481 18.5699 7.60445 17.9367 7.68314C18.6041 7.28735 19.1031 6.66032 19.3388 5.92103C18.7141 6.29182 18.0306 6.55296 17.3178 6.69314C16.881 6.226 16.3137 5.90112 15.6898 5.76075C15.0658 5.62037 14.4141 5.671 13.8193 5.90605C13.2246 6.1411 12.7143 6.54969 12.3549 7.07867C11.9954 7.60765 11.8035 8.23255 11.8041 8.87208C11.8018 9.11619 11.8267 9.35979 11.8783 9.5984C10.6104 9.53612 9.36981 9.20706 8.23771 8.63271C7.1056 8.05836 6.10739 7.25164 5.30829 6.26524C4.89754 6.96694 4.77029 7.79901 4.95254 8.5914C5.13478 9.38379 5.61278 10.0767 6.28881 10.5284C5.78422 10.5148 5.29031 10.3799 4.84881 10.1352V10.17C4.85023 10.9055 5.10482 11.6181 5.56978 12.188C6.03474 12.7579 6.68172 13.1504 7.40197 13.2995C7.1294 13.3711 6.84852 13.4061 6.56671 13.4037C6.36379 13.4074 6.16106 13.3894 5.96197 13.35C6.16832 13.9825 6.56559 14.5356 7.09913 14.9332C7.63268 15.3307 8.27629 15.5532 8.94145 15.57C7.81427 16.451 6.42472 16.9296 4.99408 16.9295C4.73917 16.9316 4.4844 16.9169 4.23145 16.8852C5.69019 17.8258 7.39054 18.3227 9.12618 18.3158C14.992 18.3158 18.1988 13.4573 18.1988 9.24629C18.1988 9.10577 18.1988 8.96998 18.1878 8.83419C18.8123 8.38346 19.3495 7.82273 19.773 7.17945Z" fill="white"/>
</g>
</g>
</g>
</g>
<defs>
<clipPath id="clip0_43_978">
<rect width="24" height="24" fill="white"/>
</clipPath>
</defs>
</svg>
